/* XPM */
static char *result[] = {
/* columns rows colors chars-per-pixel */
"25 25 49 1 ",
"  c black",
". c #030000",
"X c #020202",
"o c #050000",
"O c #080706",
"+ c #090909",
"@ c gray15",
"# c #2D2D2D",
"$ c #3C3D3D",
"% c #6C513D",
"& c #765A43",
"* c #635B53",
"= c #F05A23",
"- c #F35B23",
"; c #987E67",
": c #907E6E",
"> c #B09076",
", c #CD9C76",
"< c #CF9F77",
"1 c #D09F77",
"2 c #D1A077",
"3 c #D0A078",
"4 c #D1A179",
"5 c #A89582",
"6 c #B29D89",
"7 c #B39D89",
"8 c #A2A3A4",
"9 c #B4B4B4",
"0 c #C09D80",
"q c #C7A585",
"w c #E9BE99",
"e c #E9C09B",
"r c #ECC19D",
"t c #EDC29D",
"y c #EEC39D",
"u c #EEC39E",
"i c #D7C3AF",
"p c #D1D3D4",
"a c #D2D4D5",
"s c #D5D5D5",
"d c gray86",
"f c #DDDDDD",
"g c gray87",
"h c #F5E1CE",
"j c #F8E4D0",
"k c gray91",
"l c #F3F3F3",
"z c white",
"x c None",
/* pixels */
"xxxx%%xxxxxxxxxxxx%%%xxxx",
"xx%%%%xxxxxxxxxxx%%$xxxxx",
"xxxx$%%xxxxxxxx%%xxxxxxxx",
"xxxxxxx$$xx%%%%%xxxxxxxxx",
"xxxx$xx$$xxxx%%%%xx$$xxxx",
"xxxxxxxx$xxxxxxxxxx$$xxxx",
"xxxxxxxxxxxxx$xxxxxxxxxxx",
"xxxxxxxxxxxxxxxxxxxxxxxxx",
"xxxxxxxxxxxxxxxxxx$xxxxxx",
"xxxx$$%xxx$%xxxxxxxxxxxxx",
"xxxx%%%xxx$$$%xxxxxxxxxxx",
"xxx%xxxxxxxx%%xxxxxxxxxxx",
"xxxxxx$$xxxxxxxx%%%xxxxxx",
"xxxx$$$xxxxxxxxxxxxxxxxxx",
"xxxxxxxxxxxxxxxxxxxxxxxxx",
"xxxxxxx%%xxxxxxxxxxxxxxxx",
"xxxxxxxx%xxxxxxx$$xxxxxxx",
"xxxxxxxxxxxxxxxxx%%%%xxxx",
"xxxxxxxxxxxx%%xxxxx$$$%%x",
"xxxxxx$%%xxxxxxxxx%%$$$%x",
"xxxxxxxx%%xxxxx$xx%%%xxxx",
"xxxxxxxxxxx%%xxxxxxxxxxxx",
"xxxxx$$xxxxxxxxxxxxxxxxxx",
"xxxxxxx%xxxxxxxxxxxxx$xxx",
"xxxxxxxxxxxxxxxxxxxxxxxxx"
};

