/* XPM */
static char *result[] = {
/* columns rows colors chars-per-pixel */
"25 25 12 1 ",
"  c black",
". c #793100",
"X c #A44200",
"o c #D35500",
"O c #D45500",
"+ c #E3640F",
"@ c #EC6C17",
"# c #FF7F2A",
"$ c gray67",
"% c #FBFBFB",
"& c white",
"* c None",
/* pixels */
"**  *********************",
"* #OO********************",
"*##OO *******************",
"  && O*******************",
" $&  O*******************",
"O    O*******************",
"O XOO *******************",
" &&%&O*******************",
"*+&&  *******************",
"*#OOO********************",
"* OOO********************",
"**#OO********************",
"** O ********************",
"**#O ********************",
"**OOO********************",
"***@O *******************",
"***#O *******************",
"***#O********************",
"***OO**    **************",
"** O OOOOOOo**** OO******",
"** OOOOOO OOO  OOOOO*****",
"**OOOOOOOOO OOOOOO OO****",
"**OOO    OOOO OO  OOOOOOO",
"** O ***** OOO ****OOOOO ",
"************ *******  . *"
};
