/* XPM */
static char *result[] = {
/* columns rows colors chars-per-pixel */
"25 25 147 2 ",
"   c #330229",
".  c #680954",
"X  c #640D70",
"o  c #910C6E",
"O  c #9F1074",
"+  c #3E78F7",
"@  c #3F7DF7",
"#  c #C33694",
"$  c #C43694",
"%  c #C53694",
"&  c #C63694",
"*  c #C73694",
"=  c #C83595",
"-  c #C93595",
";  c #C83694",
":  c #C93694",
">  c #CA3694",
",  c #CB3694",
"<  c #CC3694",
"1  c #CE3694",
"2  c #CC3596",
"3  c #CD3596",
"4  c #D63397",
"5  c #D73397",
"6  c #D03694",
"7  c #D13694",
"8  c #D23694",
"9  c #D33694",
"0  c #D03496",
"q  c #D13496",
"w  c #D13497",
"e  c #D23497",
"r  c #D33497",
"t  c #D43694",
"y  c #D53694",
"u  c #D63694",
"i  c #D53497",
"p  c #D83398",
"a  c #D93398",
"s  c #DA3398",
"d  c #DB3398",
"f  c #DE3299",
"g  c #E5319A",
"h  c #E4329A",
"j  c #E9319A",
"k  c #EE309B",
"l  c #EF309B",
"z  c #F2309C",
"x  c #F3309C",
"c  c #AD4392",
"v  c #BE41A3",
"b  c #C350A2",
"n  c #C451A2",
"m  c #C754A4",
"M  c #C855A4",
"N  c #C35AA6",
"B  c #CC58A6",
"V  c #CD59A7",
"C  c #CE5AA7",
"Z  c #CF51AD",
"A  c #CF5BA8",
"S  c #D153AE",
"D  c #D254AE",
"F  c #D455AF",
"G  c #D556B0",
"H  c #D758B1",
"J  c #D859B2",
"K  c #D959B2",
"L  c #D95AB2",
"P  c #DA5BB2",
"I  c #DC5CB4",
"U  c #DD5DB4",
"Y  c #DE5EB5",
"T  c #DF5FB5",
"R  c #E161B6",
"E  c #E262B7",
"W  c #E362B7",
"Q  c #E463B8",
"!  c #E464B8",
"~  c #E565B9",
"^  c #E665B9",
"/  c #E766BA",
"(  c #E767BA",
")  c #E968BB",
"_  c #EB6ABC",
"`  c #EC6BBC",
"'  c #EC6BBD",
"]  c #EE6CBD",
"[  c #F06EBE",
"{  c #F16FBF",
"}  c #F170BF",
"|  c #DF7FCB",
" . c #F271C0",
".. c #F573C1",
"X. c #F674C2",
"o. c #F775C3",
"O. c #F977C4",
"+. c #FA78C5",
"@. c #FB78C5",
"#. c #FB79C5",
"$. c #FE7BC7",
"%. c #FF7CC7",
"&. c #278CE0",
"*. c #8FB6FA",
"=. c #E180CC",
"-. c #E181CC",
";. c #E281CC",
":. c #E281CD",
">. c #E382CD",
",. c #E383CD",
"<. c #E383CE",
"1. c #E483CE",
"2. c #E484CE",
"3. c #E685CF",
"4. c #E786CF",
"5. c #E787D0",
"6. c #E887D0",
"7. c #E888D0",
"8. c #E988D0",
"9. c #EA89D1",
"0. c #EB89D1",
"q. c #EB8AD1",
"w. c #EB8AD2",
"e. c #ED8BD2",
"r. c #ED8CD3",
"t. c #EE8CD3",
"y. c #EDABD8",
"u. c #EEACD8",
"i. c #F1AFDA",
"p. c #FCB8E0",
"a. c #FFBBE2",
"s. c #FFB8F0",
"d. c #95C6F0",
"f. c #A4D1F9",
"g. c #D3DFED",
"h. c #D3E0ED",
"j. c #D5E2EE",
"k. c #D5E3EF",
"l. c #D8E7F1",
"z. c #DAEAF3",
"x. c #DBECF4",
"c. c #DCECF4",
"v. c #DCEEF5",
"b. c #DDEEF5",
"n. c #D2E7FC",
"m. c white",
"M. c None",
/* pixels */
"M.M.M.M.M.M.M.O p.i.S M.M.M.M.M.M.M.M.M.M.M.M.M.M.",
"M.M.M.M.M.M.M.a.O.~ O v M...Z O M.M.M.M.M.M.M.M.M.",
"M.M.M.M.M.M.M.%.O.M.M.O O M.M.M.M.M.M.M.M.M.M.M.M.",
"M.M.M.M.M.M.M.M.M.M.M.M.O M.M.M.M.M.M.M.M.M.M.M.M.",
"M.M.M.M.M.M.M.M.%.%.%.s.s.%.%.%.%.M.M.M.M.M.M.M.M.",
"M.M.M.M.M.M.O %.%.%.%.%.%.%.%.%.%.%.%.M.M.M.M.M.M.",
"M.M.M.M.M.O %.%.%.%.%.%.%.%.%.%.%.%.%.O M.M.M.M.M.",
"M.M.M.M.M.$.A e 3 %.%.%.%.%.%.%.2 e A %.M.M.M.M.M.",
"M.M.M.M.O V O z g & +.@.@.@.#.* h x O C O M.M.M.M.",
"M.M.M.M...O   x.m.m.B X.X.X.B m.m.x.  O o.M.M.M.M.",
"M.M.M.M.[ j.x.m.m.m.m.{ { } m.m.m.m.c.k. .M.M.M.M.",
"M.M.M.O _ m v.m.&.  *.` ' ' @   f.m.b.M ] ] M.M.M.",
"M.M.M.^ ^ ^ z.m.d.  @ / ( ( +   n.m.z.) ) ) M.M.M.",
"M.M.O R R R b l.m.m.m.E O W m.m.m.l.n Q Q ! ! M.M.",
"M.M.O u I y.y.U N h.U O O O Y h.g.Y u.u.T u O M.M.",
"M.> , O H H e.e.e.e.J J c K L r.r.r.t.t.P O < > M.",
"O i r O D 9.9.9.9.9.9.9.F 0.0.0.q.w.w.w.G O r i O ",
"a k j w 5.6.6.6.6.6.6.6.6.7.7.7.8.8.8.8.8.q j l a ",
"X l j w 9 3.3.3.3.3.3.3.3.3.3.3.4.4.4.4.4.w j l X ",
"X X r u 9 >.,.,.,.<.1.1.1.1.1.1.1.1.2.2.7 u r X X ",
"X M.X u t , # =.=.-.-.-.-.-.;.;.:.:.:.: 9 u X M.X ",
"M.M.X O u 1 % = 0 p f | | | | | e - # < y u X M.M.",
"M.M.M.M.O 8 : # . q 4 s d s 5 e o $ ; 6 O M.M.M.M.",
"M.M.M.M.M.M.O o o o o 0 e q . . o o O M.M.M.M.M.M.",
"M.M.M.M.M.M.M.o o o M.M.M.M.M.o o o M.M.M.M.M.M.M."
};
