/* XPM */
static char *result[] = {
/* columns rows colors chars-per-pixel */
"25 25 49 1 ",
"  c black",
". c #030000",
"X c #020202",
"o c #050000",
"O c #080706",
"+ c #090909",
"@ c gray15",
"# c #2D2D2D",
"$ c #3C3D3D",
"% c #6C513D",
"& c #765A43",
"* c #635B53",
"= c #F05A23",
"- c #F35B23",
"; c #987E67",
": c #907E6E",
"> c #B09076",
", c #CD9C76",
"< c #CF9F77",
"1 c #D09F77",
"2 c #D1A077",
"3 c #D0A078",
"4 c #D1A179",
"5 c #A89582",
"6 c #B29D89",
"7 c #B39D89",
"8 c #A2A3A4",
"9 c #B4B4B4",
"0 c #C09D80",
"q c #C7A585",
"w c #E9BE99",
"e c #E9C09B",
"r c #ECC19D",
"t c #EDC29D",
"y c #EEC39D",
"u c #EEC39E",
"i c #D7C3AF",
"p c #D1D3D4",
"a c #D2D4D5",
"s c #D5D5D5",
"d c gray86",
"f c #DDDDDD",
"g c gray87",
"h c #F5E1CE",
"j c #F8E4D0",
"k c gray91",
"l c #F3F3F3",
"z c white",
"x c None",
/* pixels */
"xxxxxxxxxxxxxxx     xxxxx",
"xxxxxxxxxxxxx  :7 i xxxxx",
"xxxxxxxxxxx$  777 i xxxxx",
"xxxxxxxxxx  77777 i xxxxx",
"xxxxxxxxx O777777 i xxxxx",
"xxxxxx#dx 776   5 i xxxxx",
"xxxxxx       hhj    sxxxx",
"xxxxxxu  *htttttthhh xxxx",
"x xxxx t ttttttt  tth xxx",
"x  xxx t yttttt zz t l xx",
"x   gf;tt tttt zzzz zzz x",
"      t tt ttt zzzzzzzz x",
"xx     t tt tt zzz zzzkzx",
"xxx  u  ttttt3azzz zzz zx",
"     t te ttt18zzz zzz zx",
"     tttttttqw zzzzzzzzXx",
"x  x ttu ttttt pzzz pzz x",
"xxx9x ttttttt01 pzz  p @f",
"xxxxx 1ttttttt4        xx",
"xxxxx 211tttt t111t =-  x",
"xxxxxx 11111r11ttt>   xxx",
"xxxxxx  <1111111t11, xxxx",
"xxxxx xx  &111111%  xxxxx",
"xxxxxxx   +     .oxxxxxxx",
"xxxxxxx xxxxxxxxxxxxxxxxx"
};