/* XPM */
static char *result[] = {
/* columns rows colors chars-per-pixel */
"20 20 237 2 ",
"   c #1E1F19",
".  c #202119",
"X  c #20201A",
"o  c #272820",
"O  c #282820",
"+  c #292A22",
"@  c #2A2B22",
"#  c #2B2C22",
"$  c #2C2D23",
"%  c #2B2C24",
"&  c #2B2C25",
"*  c #2C2D24",
"=  c #2C2D27",
"-  c #313126",
";  c #303127",
":  c #323327",
">  c #343529",
",  c #34342C",
"<  c #36372D",
"1  c #36372E",
"2  c #37382C",
"3  c #37382D",
"4  c #38382C",
"5  c #38392C",
"6  c #393A2D",
"7  c #38382E",
"8  c #39392F",
"9  c #3A3A2F",
"0  c #363630",
"q  c #3D3E31",
"w  c #3F3F35",
"e  c #3D3E3A",
"r  c #3F4032",
"t  c #404032",
"y  c #404033",
"u  c #414134",
"i  c #414235",
"p  c #424334",
"a  c #424336",
"s  c #434436",
"d  c #444538",
"f  c #454738",
"g  c #474738",
"h  c #464739",
"j  c #47483A",
"k  c #48493B",
"l  c #494A3A",
"z  c #484A3B",
"x  c #4C4D3E",
"c  c #4D4E3F",
"v  c #4E4E3E",
"b  c #4F4F3E",
"n  c #4E503F",
"m  c #50503F",
"M  c #4D4F40",
"N  c #4F4F40",
"B  c #4E4F41",
"V  c #4E4F45",
"C  c #4F514C",
"Z  c #505141",
"A  c #515241",
"S  c #525241",
"D  c #525341",
"F  c #505142",
"G  c #505242",
"H  c #525343",
"J  c #535343",
"K  c #535442",
"L  c #535443",
"P  c #525345",
"I  c #535444",
"U  c #535544",
"Y  c #545544",
"T  c #545545",
"R  c #545645",
"E  c #555645",
"W  c #545546",
"Q  c #565746",
"!  c #575846",
"~  c #565847",
"^  c #585946",
"/  c #595947",
"(  c #595A47",
")  c #50514B",
"_  c #57594A",
"`  c #595A48",
"'  c #595A49",
"]  c #5B5B4B",
"[  c #5A5C49",
"{  c #5A5C4A",
"}  c #5B5C4A",
"|  c #5D5D49",
" . c #5E5E4B",
".. c #59594E",
"X. c #5D5E4C",
"o. c #5D5E4D",
"O. c #5E5F4C",
"+. c #5E5F4D",
"@. c #545650",
"#. c #565652",
"$. c #5D5D58",
"%. c #5F5F5A",
"&. c #60614C",
"*. c #60604E",
"=. c #60624E",
"-. c #61624E",
";. c #60634E",
":. c #61624F",
">. c #62634F",
",. c #636550",
"<. c #626451",
"1. c #636451",
"2. c #646550",
"3. c #646551",
"4. c #666752",
"5. c #626355",
"6. c #666754",
"7. c #676854",
"8. c #686853",
"9. c #686A55",
"0. c #6A6B57",
"q. c #6A6C56",
"w. c #6B6C56",
"e. c #6B6D56",
"r. c #6A6C57",
"t. c #6B6D57",
"y. c #6C6D57",
"u. c #6D6D57",
"i. c #6C6E57",
"p. c #67675F",
"a. c #696C58",
"s. c #6A6C59",
"d. c #6D6E58",
"f. c #6E6F58",
"g. c #6E6F59",
"h. c #6E6F5A",
"j. c #6E6F5B",
"k. c #6E7059",
"l. c #6F7059",
"z. c #6F705A",
"x. c #6F715A",
"c. c #6E705B",
"v. c #6F715B",
"b. c #6F725B",
"n. c #70715A",
"m. c #70715B",
"M. c #71725A",
"N. c #70725B",
"B. c #71725B",
"V. c #70715C",
"C. c #71725C",
"Z. c #71735C",
"A. c #71735D",
"S. c #72745D",
"D. c #73745D",
"F. c #72745E",
"G. c #73745E",
"H. c #73755E",
"J. c #74755E",
"K. c #75755E",
"L. c #74765E",
"P. c #75765E",
"I. c #74765F",
"U. c #76775F",
"Y. c #77785F",
"T. c #747660",
"R. c #757760",
"E. c #757761",
"W. c #767760",
"Q. c #767761",
"!. c #757860",
"~. c #767860",
"^. c #777860",
"/. c #777960",
"(. c #767861",
"). c #777861",
"_. c #767961",
"`. c #777961",
"'. c #767862",
"]. c #777862",
"[. c #777962",
"{. c #767863",
"}. c #777A62",
"|. c #787962",
" X c #797962",
".X c #787863",
"XX c #787A62",
"oX c #797A62",
"OX c #787A63",
"+X c #797B63",
"@X c #7A7B63",
"#X c #7B7B63",
"$X c #7A7C63",
"%X c #7A7D63",
"&X c #787A64",
"*X c #797A64",
"=X c #797B64",
"-X c #7B7B65",
";X c #7A7C64",
":X c #7B7C64",
">X c #7B7C65",
",X c #7C7E66",
"<X c #7D7E66",
"1X c #7D7F67",
"2X c #7F7F66",
"3X c #7E8067",
"4X c #7D8069",
"5X c #7E8068",
"6X c #7F8068",
"7X c #7E8069",
"8X c #7F826A",
"9X c #808169",
"0X c #808269",
"qX c #818269",
"wX c #818369",
"eX c #81836A",
"rX c #828469",
"tX c #83846A",
"yX c #82846B",
"uX c #83846B",
"iX c #82836C",
"pX c #83846C",
"aX c #84856C",
"sX c #85876D",
"dX c #84866E",
"fX c #85866E",
"gX c #85876F",
"hX c #86886F",
"jX c #808072",
"kX c #848476",
"lX c #848677",
"zX c #878970",
"xX c #878971",
"cX c #888A71",
"vX c #8B8C72",
"bX c #8C8D74",
"nX c None",
/* pixels */
"nXnXnXnXnX| 4.nXnXs - nXnXnXnXnXnXnXnXnX",
"nXC.d.I.vX<XM.A Z.v X.<._ |.nXnXnXnXnXnX",
"nXnXq m w.@ [ <.} a nXO.{.iXbX&.5 nXnXnX",
"nX9 l g ~ P.N qXY.dX$ k s + M ! P.nXnXnX",
"nXnXnXnXXX9XN.T.(.^.z.nX,Xn.0 Z ] ' 5.nX",
"nXnXnXP t ~.n.S.D.( D B uX:.h.8XOXgXL.nX",
"nXnXnXnX7XuX;Xo . X   nX* & ..<Xi.*X~.7 ",
"nXnXnXH nXnXv.z d $.[.,.+.> 6./.V.].: .X",
"nXnXnX#Xm.Q H rX+X>.V E zXW.^ z q cX, 1 ",
"nXnXnX= ; #.y ) *.g.;.3.R.B.n.e.L.&XU.nX",
"nX:.F.c R.Y k.2 I ).f.@.j f F.l.J.q o.nX",
"Q.A.-X9Xh 4Xx.3 6X9.<X:Xj.eXc b.1X8 nXnX",
"u.:X` J g.h.-.n  .lX% R nXF d.g.T nXnXnX",
"nXnXkXr 0Xp / oX X7.r.>.nXp.e C nXnXnXnX",
"nXnX@XjXH.x.n.`.I.q.xXD.%.'.}.>Xc.sX0.nX",
"nXnXtXS L oX%XK.Z.{ a.x X.<X8.i hX<X:XnX",
"nXr.s.wXG $X_.K (.y.5XnX=Xm.(.D.R.1.g.nX",
"kX6 pX3X4 yXu fXpXt.N # g.G.2XaXz.A W nX",
"nXE.I.=.nXnXnXnXnXnXnXnXw b U !.6 2.nXnX",
"nXnXnXnXnXnXnXnXnXnXnXnXnXnX< 6.O nXnXnX"
};
